<svg width="44.040344" height="57.000244" viewBox="0 0 44.0403 57.0002" fill="none" xmlns="http://www.w3.org/2000/svg" xmlns:xlink="http://www.w3.org/1999/xlink">
	<desc>
			Created with Pixso.
	</desc>
	<defs/>
	<path id="Vector" d="M22.02 5.74C21.72 5.74 21.44 5.69 21.18 5.61L21.18 9.59L22.85 9.59L22.85 5.61C22.59 5.69 22.31 5.74 22.02 5.74Z" fill="#135693" fill-opacity="1.000000" fill-rule="nonzero"/>
	<path id="Vector" d="M24.94 2.92C24.94 4.54 23.63 5.85 22.02 5.85C20.4 5.85 19.09 4.54 19.09 2.92C19.09 1.31 20.4 0 22.02 0C23.63 0 24.94 1.31 24.94 2.92Z" fill="#6BC1DD" fill-opacity="1.000000" fill-rule="evenodd"/>
	<g opacity="0.150000">
		<g opacity="0.150000">
			<path id="Vector" d="M21.55 2.92C21.55 1.75 22.25 0.73 23.25 0.27C22.87 0.09 22.46 0 22.02 0C20.4 0 19.09 1.31 19.09 2.92C19.09 4.54 20.4 5.85 22.02 5.85C22.46 5.85 22.87 5.75 23.25 5.58C22.25 5.11 21.55 4.1 21.55 2.92Z" fill="#440075" fill-opacity="1.000000" fill-rule="nonzero"/>
		</g>
	</g>
	<path id="Vector" d="M40.67 14.16L38.95 14.16L38.95 30.08L40.67 30.08C41.62 30.08 42.39 29.31 42.39 28.36L42.39 15.88C42.39 14.93 41.62 14.16 40.67 14.16Z" fill="#9EA7AF" fill-opacity="1.000000" fill-rule="nonzero"/>
	<path id="Vector" d="M5.09 14.16L3.25 14.16C2.3 14.16 1.53 14.93 1.53 15.88L1.53 28.36C1.53 29.31 2.3 30.08 3.25 30.08L5.09 30.08L5.09 14.16Z" fill="#9EA7AF" fill-opacity="1.000000" fill-rule="nonzero"/>
	<path id="Vector" d="M6.26 50.91L3.89 50.91C3.09 50.91 2.34 50.67 1.72 50.25L1.72 55.85C1.72 56.48 2.23 57 2.86 57L6.26 57L6.26 50.91Z" fill="#C5CCD3" fill-opacity="1.000000" fill-rule="nonzero"/>
	<path id="Vector" d="M40.14 50.91L37.77 50.91L37.77 57L41.17 57C41.8 57 42.32 56.48 42.32 55.85L42.32 50.25C41.69 50.67 40.94 50.91 40.14 50.91Z" fill="#C5CCD3" fill-opacity="1.000000" fill-rule="nonzero"/>
	<g opacity="0.150000">
		<path id="Vector" d="M4.12 55.85L4.12 50.91L3.89 50.91C3.09 50.91 2.34 50.67 1.72 50.25L1.72 55.85C1.72 56.48 2.23 57 2.86 57L5.27 57C4.64 57 4.12 56.48 4.12 55.85Z" fill="#440075" fill-opacity="1.000000" fill-rule="nonzero"/>
	</g>
	<path id="Vector" d="M6.26 42.14L3.89 42.14C1.74 42.14 0 43.89 0 46.04L0 47.19C0 49.34 1.74 51.09 3.89 51.09L6.26 51.09L6.26 42.14Z" fill="#E6E9ED" fill-opacity="1.000000" fill-rule="nonzero"/>
	<path id="Vector" d="M40.14 42.14L37.77 42.14L37.77 51.09L40.14 51.09C42.29 51.09 44.04 49.34 44.04 47.19L44.04 46.04C44.04 43.89 42.29 42.14 40.14 42.14Z" fill="#E6E9ED" fill-opacity="1.000000" fill-rule="nonzero"/>
	<g opacity="0.150000">
		<g opacity="0.150000">
			<path id="Vector" d="M2.75 47.19L2.75 46.04C2.75 43.89 4.49 42.14 6.65 42.14L3.89 42.14C1.74 42.14 0 43.89 0 46.04L0 47.19C0 49.34 1.74 51.09 3.89 51.09L6.65 51.09C4.49 51.09 2.75 49.34 2.75 47.19Z" fill="#440075" fill-opacity="1.000000" fill-rule="nonzero"/>
		</g>
	</g>
	<path id="Vector" d="M18.21 34.51L25.82 34.51L25.82 37.36L18.21 37.36L18.21 34.51Z" fill="#9EA7AF" fill-opacity="1.000000" fill-rule="evenodd"/>
	<g opacity="0.150000">
		<path id="Vector" d="M18.21 34.51L20.98 34.51L20.98 37.36L18.21 37.36L18.21 34.51Z" fill="#440075" fill-opacity="1.000000" fill-rule="evenodd"/>
	</g>
	<path id="Vector" d="M30.97 40.07L30.97 38.22C30.97 37.68 30.53 37.23 29.98 37.23L13.71 37.23C13.17 37.23 12.73 37.68 12.73 38.22L12.73 40.07L30.97 40.07Z" fill="#C5CCD3" fill-opacity="1.000000" fill-rule="nonzero"/>
	<g opacity="0.150000">
		<path id="Vector" d="M16.16 40.07L16.16 38.22C16.16 37.68 16.6 37.23 17.14 37.23L13.71 37.23C13.17 37.23 12.73 37.68 12.73 38.22L12.73 40.07L16.16 40.07Z" fill="#440075" fill-opacity="1.000000" fill-rule="nonzero"/>
	</g>
	<path id="Vector" d="M36.16 39.88L7.87 39.88C6.92 39.88 6.15 40.65 6.15 41.6L6.15 57L37.88 57L37.88 41.6C37.88 40.65 37.11 39.88 36.16 39.88Z" fill="#9EA7AF" fill-opacity="1.000000" fill-rule="nonzero"/>
	<g opacity="0.150000">
		<g opacity="0.150000">
			<path id="Vector" d="M11.15 39.88L7.87 39.88C6.92 39.88 6.15 40.65 6.15 41.6L6.15 57L9.43 57L9.43 41.6C9.43 40.65 10.21 39.88 11.15 39.88Z" fill="#440075" fill-opacity="1.000000" fill-rule="nonzero"/>
		</g>
	</g>
	<path id="Vector" d="M39.06 32.92C39.06 33.87 38.28 34.64 37.34 34.64L6.69 34.64C5.75 34.64 4.97 33.87 4.97 32.92L4.97 11.2C4.97 10.25 5.75 9.48 6.69 9.48L37.34 9.48C38.28 9.48 39.06 10.25 39.06 11.2L39.06 32.92Z" fill="#C5CCD3" fill-opacity="1.000000" fill-rule="nonzero"/>
	<g opacity="0.150000">
		<g opacity="0.150000">
			<path id="Vector" d="M8.25 32.92L8.25 11.2C8.25 10.25 9.03 9.48 9.97 9.48L6.69 9.48C5.75 9.48 4.97 10.25 4.97 11.2L4.97 32.92C4.97 33.87 5.75 34.64 6.69 34.64L9.97 34.64C9.03 34.64 8.25 33.87 8.25 32.92Z" fill="#440075" fill-opacity="1.000000" fill-rule="nonzero"/>
		</g>
	</g>
	<path id="Vector" d="M34.99 22.09C34.99 25.38 32.32 28.04 29.04 28.04L14.99 28.04C11.71 28.04 9.04 25.38 9.04 22.09C9.04 18.81 11.71 16.15 14.99 16.15L29.04 16.15C32.32 16.15 34.99 18.81 34.99 22.09Z" fill="#135693" fill-opacity="1.000000" fill-rule="nonzero"/>
	<g opacity="0.150000">
		<g opacity="0.150000">
			<path id="Vector" d="M12.38 22.09C12.38 18.81 15.04 16.15 18.32 16.15L14.99 16.15C11.71 16.15 9.04 18.81 9.04 22.09C9.04 25.38 11.71 28.04 14.99 28.04L18.32 28.04C15.04 28.04 12.38 25.38 12.38 22.09Z" fill="#440075" fill-opacity="1.000000" fill-rule="nonzero"/>
		</g>
	</g>
	<path id="Vector" d="M16.7 22.1C16.7 23.38 15.67 24.41 14.39 24.41C13.12 24.41 12.08 23.38 12.08 22.1C12.08 20.81 13.12 19.78 14.39 19.78C15.67 19.78 16.7 20.81 16.7 22.1Z" fill="#6BC1DD" fill-opacity="1.000000" fill-rule="evenodd"/>
	<path id="Vector" d="M31.99 22.09C31.99 23.38 30.96 24.41 29.68 24.41C28.41 24.41 27.37 23.38 27.37 22.09C27.37 20.81 28.41 19.78 29.68 19.78C30.96 19.78 31.99 20.81 31.99 22.09Z" fill="#6BC1DD" fill-opacity="1.000000" fill-rule="evenodd"/>
	<path id="Vector" d="M32.27 57L32.27 47C32.27 46.37 31.75 45.85 31.12 45.85L12.91 45.85C12.28 45.85 11.76 46.37 11.76 47L11.76 57L32.27 57Z" fill="#135693" fill-opacity="1.000000" fill-rule="nonzero"/>
	<path id="Vector" d="M24.08 57L24.08 53.77C24.08 53.58 23.92 53.43 23.74 53.43L20.29 53.43C20.11 53.43 19.95 53.58 19.95 53.77L19.95 57L24.08 57Z" fill="#FFC502" fill-opacity="1.000000" fill-rule="nonzero"/>
	<path id="Vector" d="M17.2 49.44L14.56 49.44C14.1 49.44 13.73 49.07 13.73 48.6C13.73 48.14 14.1 47.77 14.56 47.77L17.2 47.77C17.66 47.77 18.03 48.14 18.03 48.6C18.03 49.07 17.66 49.44 17.2 49.44Z" fill="#C5CCD3" fill-opacity="1.000000" fill-rule="nonzero"/>
	<path id="Vector" d="M16.05 51.48L14.56 51.48C14.1 51.48 13.73 51.1 13.73 50.64C13.73 50.18 14.1 49.81 14.56 49.81L16.05 49.81C16.51 49.81 16.89 50.18 16.89 50.64C16.89 51.1 16.51 51.48 16.05 51.48Z" fill="#C5CCD3" fill-opacity="1.000000" fill-rule="nonzero"/>
	<path id="Vector" d="M17.2 53.52L14.56 53.52C14.1 53.52 13.73 53.14 13.73 52.68C13.73 52.22 14.1 51.85 14.56 51.85L17.2 51.85C17.66 51.85 18.03 52.22 18.03 52.68C18.03 53.14 17.66 53.52 17.2 53.52Z" fill="#C5CCD3" fill-opacity="1.000000" fill-rule="nonzero"/>
	<path id="Vector" d="M15.71 55.55L14.56 55.55C14.1 55.55 13.73 55.18 13.73 54.72C13.73 54.26 14.1 53.88 14.56 53.88L15.71 53.88C16.17 53.88 16.54 54.26 16.54 54.72C16.54 55.18 16.17 55.55 15.71 55.55Z" fill="#C5CCD3" fill-opacity="1.000000" fill-rule="nonzero"/>
	<path id="Vector" d="M29.09 54.72L27.06 54.72C26.57 54.72 26.18 54.32 26.18 53.84C26.18 53.36 26.57 52.97 27.06 52.97L29.09 52.97C29.57 52.97 29.97 53.36 29.97 53.84C29.97 54.32 29.57 54.72 29.09 54.72Z" fill="#E6E9ED" fill-opacity="1.000000" fill-rule="nonzero"/>
	<path id="Vector" d="M29.91 49.85C29.91 50.86 29.09 51.68 28.07 51.68C27.06 51.68 26.24 50.86 26.24 49.85C26.24 48.83 27.06 48.01 28.07 48.01C29.09 48.01 29.91 48.83 29.91 49.85Z" fill="#5DC647" fill-opacity="1.000000" fill-rule="evenodd"/>
	<path id="Vector" d="M24.13 50.81C24.13 51 23.97 51.16 23.78 51.16L20.25 51.16C20.06 51.16 19.9 51 19.9 50.81L19.9 48.89C19.9 48.69 20.06 48.53 20.25 48.53L23.78 48.53C23.97 48.53 24.13 48.69 24.13 48.89L24.13 50.81Z" fill="#6BC1DD" fill-opacity="1.000000" fill-rule="nonzero"/>
</svg>
